<?xml version="1.0" encoding="utf-8"?>
<!-- Generator: Adobe Illustrator 23.0.3, SVG Export Plug-In . SVG Version: 6.00 Build 0)  -->
<svg version="1.1" xmlns="http://www.w3.org/2000/svg" xmlns:xlink="http://www.w3.org/1999/xlink" x="0px" y="0px"
	 viewBox="0 0 256 256" style="enable-background:new 0 0 256 256;" xml:space="preserve">
<style type="text/css">
	.st0{fill:#878787;}
	.st1{fill:#F2E1D6;}
	.st2{fill:#FFFFFF;}
	.st3{fill:#F0C020;}
	.st4{fill:#F9E5AF;}
	.st5{fill:#72C1E8;}
	.st6{fill:#C5E5FF;}
	.st7{fill:#13BF6D;}
	.st8{fill:#76FFBA;}
	.st9{fill:#EFEFEF;}
	.st10{fill:#FC5D3D;}
	.st11{fill:#FFCBC2;}
	.st12{fill:#FFB69F;}
	.st13{fill:#AFAFAF;}
	.st14{fill:#7C7B7A;}
	.st15{fill:#D6C0B4;}
	.st16{fill:#7A7380;}
	.st17{fill:#F0AB20;}
	.st18{fill:#FBE0E2;}
	.st19{fill:#4C4945;}
	.st20{fill:#68B0D4;}
	.st21{fill:#B35034;}
	.st22{fill:#EDAF85;}
	.st23{fill:#139C6D;}
</style>
<g id="Layer_2">
</g>
<g id="Layer_1">
	<g>
		<g>
			<g>
				<g>
					<g>
						<path class="st13" d="M226.34,64.28H190.1l12.26,12.26v112.7h-49.03v15.27h98.07V89.34L226.34,64.28z"/>
					</g>
					<g>
						<path class="st0" d="M210.359,73.231v119.01c0,2.761-2.239,5-5,5h-52.03v-8h49.03V76.543l-12.26-12.262h11.31L210.359,73.231z
							"/>
					</g>
					<g>
						<path class="st19" d="M251.39,89.34h-23.341c-0.946,0-1.712-0.767-1.712-1.712V64.287L251.39,89.34z"/>
					</g>
				</g>
				<g>
					<g>
						<polygon class="st3" points="217.539,132.541 218.939,150.611 210.359,146.971 202.359,143.571 202.359,99.581 
							210.359,112.461 211.749,114.701 229.189,119.071 						"/>
					</g>
				</g>
				<g>
					<polygon class="st17" points="210.359,112.461 210.359,146.971 202.359,143.571 202.359,99.581 					"/>
				</g>
				<path class="st5" d="M190.1,64.28l-12.8-12.79h-73v51.78h0.78c7.35,0,13.32,5.97,13.32,13.32v21.93
					c0,7.35-5.97,13.32-13.32,13.32h-0.78v37.4h98.06V76.54L190.1,64.28z"/>
				<path class="st13" d="M190.1,64.28l-12.8-12.79v23.34c0,0.95,0.77,1.71,1.72,1.71h23.34L190.1,64.28z"/>
				<g>
					<g>
						<path class="st6" d="M192.714,180.747h-4.851c-1.381,0-2.5-1.119-2.5-2.5s1.119-2.5,2.5-2.5h4.851c1.381,0,2.5,1.119,2.5,2.5
							S194.095,180.747,192.714,180.747z M177.864,180.747h-64.18c-1.381,0-2.5-1.119-2.5-2.5v-17.82c0-1.381,1.119-2.5,2.5-2.5
							s2.5,1.119,2.5,2.5v15.32h61.68c1.381,0,2.5,1.119,2.5,2.5S179.244,180.747,177.864,180.747z"/>
					</g>
					<g>
						<path class="st6" d="M113.684,94.685c-1.381,0-2.5-1.119-2.5-2.5V61.791c0-1.381,1.119-2.5,2.5-2.5s2.5,1.119,2.5,2.5v30.394
							C116.184,93.565,115.065,94.685,113.684,94.685z"/>
					</g>
				</g>
				<g>
					<polygon class="st10" points="155.57,97.006 131.595,134.88 179.546,134.88 					"/>
				</g>
			</g>
			<g>
				<g>
					<path class="st10" d="M4.601,162.933h37.961c1.575,0,2.852-1.277,2.852-2.852V95.036c0-1.575-1.277-2.852-2.852-2.852H4.601
						V162.933z"/>
				</g>
				<g>
					<path class="st9" d="M45.414,97.637h-0.004v59.854h14.587c2.555,0,4.614-2.087,4.621-4.624c0-0.004,0.001-0.008,0.001-0.012
						l0,0c0-0.001,0-0.002,0-0.002v-50.602c0-0.001,0-0.002,0-0.002v-0.002c0-2.398-1.973-4.615-4.619-4.615H45.414V97.637z"/>
				</g>
				<g>
					<path class="st12" d="M105.079,103.27h-0.78h-23.03l2.47-5.27c1.75-3.75,0.14-8.27-3.65-10.03c-3.79-1.76-8.28-0.12-10.03,3.65
						l-5.44,11.65v48.57h39.68h0.78c7.35,0,13.32-5.97,13.32-13.32v-21.93C118.399,109.24,112.429,103.27,105.079,103.27z"/>
				</g>
				<g>
					<path class="st11" d="M33.797,155.373c-1.381,0-2.5-1.119-2.5-2.5v-2c0-1.381,1.119-2.5,2.5-2.5s2.5,1.119,2.5,2.5v2
						C36.297,154.254,35.178,155.373,33.797,155.373z M33.797,143.373c-1.381,0-2.5-1.119-2.5-2.5v-36.825h-14.39
						c-1.381,0-2.5-1.119-2.5-2.5s1.119-2.5,2.5-2.5h16.89c1.381,0,2.5,1.119,2.5,2.5v39.325
						C36.297,142.254,35.178,143.373,33.797,143.373z"/>
				</g>
			</g>
		</g>
		<path class="st9" d="M240.999,197.261H221.75c-1.381,0-2.5-1.119-2.5-2.5s1.119-2.5,2.5-2.5h16.749v-77.834
			c0-1.381,1.119-2.5,2.5-2.5s2.5,1.119,2.5,2.5v80.334C243.499,196.142,242.38,197.261,240.999,197.261z M240.999,106.927
			c-1.381,0-2.5-1.119-2.5-2.5v-4c0-1.381,1.119-2.5,2.5-2.5s2.5,1.119,2.5,2.5v4C243.499,105.808,242.38,106.927,240.999,106.927z"
			/>
		<g>
			<path d="M181.658,133.543l-23.976-37.874c-0.979-1.547-3.243-1.551-4.225,0l-23.976,37.874c-1.052,1.661,0.144,3.837,2.112,3.837
				h47.952C181.512,137.38,182.711,135.205,181.658,133.543z M136.136,132.38l19.435-30.7l19.434,30.7H136.136z"/>
			<circle cx="45.41" cy="122.52" r="2.5"/>
			<path d="M253.16,87.569L228.1,62.51c-0.46-0.46-1.11-0.729-1.76-0.729h-35.199L179.08,49.72c-0.432-0.423-1.11-0.729-1.786-0.729
				H104.3c-1.424,0-2.5,1.162-2.5,2.5v49.282H85.198L86,99.056c2.342-5.01,0.182-11.007-4.861-13.356
				c-5.021-2.337-11.012-0.154-13.35,4.859l-3.001,6.437c-1.266-1.154-2.943-1.865-4.788-1.865H47.91V95.04
				c0-2.95-2.4-5.351-5.35-5.36H4.6c-1.38,0-2.5,1.13-2.5,2.5c0,1.38,1.12,2.5,2.5,2.5h37.96c0.2,0,0.35,0.16,0.35,0.36v17.479
				c0,1.38,1.13,2.5,2.5,2.5c1.38,0,2.5-1.12,2.5-2.5v-12.389H60c1.268,0,2.119,1.095,2.12,2.12l0,50.547
				c-0.033,1.37-1.045,2.192-2.123,2.192H47.91V132.52c0-1.38-1.12-2.5-2.5-2.5c-1.37,0-2.5,1.12-2.5,2.5v27.561
				c0,0.189-0.15,0.35-0.35,0.35H4.6c-1.38,0-2.5,1.12-2.5,2.5s1.12,2.5,2.5,2.5c0.01,0,0.01,0,0.01,0h37.95
				c2.95,0,5.35-2.399,5.35-5.35v-0.09h12.086c3.411,0,6.273-2.423,6.962-5.647H101.8v34.897c0,1.368,1.098,2.5,2.5,2.5h46.53v12.77
				c0,1.377,1.103,2.5,2.5,2.5h98.07c1.348,0,2.5-1.093,2.5-2.5v-46.66c0-1.38-1.13-2.5-2.5-2.5c-1.38,0-2.5,1.12-2.5,2.5v44.16
				h-93.07v-10.27h15.23c1.37,0,2.49-1.12,2.49-2.5c0-1.37-1.11-2.49-2.48-2.5c-0.01,0-0.01,0-0.01,0H106.8v-32.496
				c7.916-0.862,14.098-7.582,14.098-15.724v-21.927c0-8.141-6.183-14.861-14.098-15.723V53.99h68.003v20.84
				c0,2.323,1.89,4.213,4.212,4.213h20.844V186.74h-8.8c-1.38,0-2.5,1.119-2.5,2.5c0,1.38,1.12,2.5,2.5,2.5h11.3
				c1.378,0,2.5-1.114,2.5-2.5v-41.892l13.103,5.564c1.723,0.73,3.613-0.626,3.469-2.495l-1.319-17.029l10.968-12.682
				c1.22-1.412,0.516-3.61-1.284-4.061l-16.458-4.124l-8.479-13.652V76.54c0-0.67-0.26-1.3-0.73-1.771l-7.989-7.989h27.696v20.848
				c0,2.323,1.89,4.213,4.212,4.213H248.9v46.009c0,1.38,1.12,2.5,2.5,2.5s2.5-1.12,2.5-2.5c0-0.01,0-0.01,0-0.02V89.34
				C253.9,88.67,253.64,88.05,253.16,87.569z M115.898,116.594v0.696h-24.39c-1.381,0-2.5,1.119-2.5,2.5s1.119,2.5,2.5,2.5h24.39
				v10.542h-24.39c-1.381,0-2.5,1.119-2.5,2.5s1.119,2.5,2.5,2.5h24.39v0.688c0,5.95-4.836,10.819-10.818,10.819
				c0,0,0.734,0.003-37.96,0.003v-45.517l5.201-11.154c1.175-2.52,4.184-3.613,6.709-2.44c2.529,1.18,3.614,4.198,2.441,6.707
				l-2.465,5.275c-0.773,1.654,0.436,3.559,2.265,3.559h23.806C111.044,105.772,115.898,110.627,115.898,116.594z M179.803,57.522
				l8.525,8.521c0.003,0.003,0.006,0.006,0.009,0.009l7.995,7.991h-16.529V57.522z M209.625,116.019
				c0.343,0.552,0.886,0.949,1.517,1.106l13.499,3.383l-8.993,10.397c-0.437,0.505-0.653,1.163-0.602,1.829l1.083,13.968
				l-11.269-4.786v-33.571L209.625,116.019z M228.837,70.317l16.524,16.524h-16.524V70.317z"/>
			<circle cx="251.4" cy="147.85" r="2.5"/>
			<path d="M181.05,191.74c1.38,0,2.51-1.12,2.51-2.5c0-1.381-1.13-2.5-2.51-2.5c-1.37,0-2.49,1.119-2.49,2.5
				C178.56,190.62,179.68,191.74,181.05,191.74z"/>
		</g>
	</g>
</g>
</svg>
